<?xml version="1.0" ?><!DOCTYPE svg  PUBLIC '-//W3C//DTD SVG 1.1//EN'  'http://www.w3.org/Graphics/SVG/1.1/DTD/svg11.dtd'><svg enable-background="new 0 0 512 512" height="512px" id="Calque_1" version="1.1" viewBox="0 0 512 512" width="512px" xml:space="preserve" xmlns="http://www.w3.org/2000/svg" xmlns:xlink="http://www.w3.org/1999/xlink"><g><g><g id="XMLID_1_"><g><path d="M407.27,432.27v4.54c0,8.23-6.67,14.91-14.91,14.91H119.64c-8.24,0-14.91-6.68-14.91-14.91v-4.54      c0-8.23,6.67-14.9,14.91-14.9h272.72C400.6,417.37,407.27,424.04,407.27,432.27z" fill="#C98B0E"/><path d="M407.27,432.27v4.54c0,1.71-0.29,3.36-0.83,4.89c-2.02-5.82-7.56-10-14.08-10H119.64      c-6.52,0-12.06,4.18-14.08,10c-0.54-1.53-0.83-3.18-0.83-4.89v-4.54c0-8.23,6.67-14.9,14.91-14.9h272.72      C400.6,417.37,407.27,424.04,407.27,432.27z" opacity="0.2"/><path d="M90.72,216.9c-4.26,7.61-11.52,13.32-20.18,15.52c-2.55,0.65-5.23,1-7.99,1      c-17.82,0-32.26-14.44-32.26-32.26s14.44-32.26,32.26-32.26s32.26,14.44,32.26,32.26C94.81,206.88,93.32,212.25,90.72,216.9z" fill="#2FC1F1"/><path d="M256,60.28c24.34,0,44.07,19.73,44.07,44.07c0,21.59-15.54,39.57-36.06,43.33      c-2.6,0.48-5.27,0.73-8.01,0.73s-5.41-0.25-8.01-0.73c-20.52-3.76-36.06-21.74-36.06-43.33C211.93,80.01,231.66,60.28,256,60.28      z" fill="#DD6475"/><g><path d="M226.071,108.849c-2.485,0-4.5-2.015-4.5-4.5c0-18.984,15.445-34.429,34.429-34.429       c2.485,0,4.5,2.015,4.5,4.5s-2.015,4.5-4.5,4.5c-14.021,0-25.429,11.408-25.429,25.429       C230.571,106.834,228.557,108.849,226.071,108.849z" fill="#FFFFFF"/></g><path d="M421.28,216.9c-2.6-4.65-4.09-10.02-4.09-15.74c0-17.82,14.44-32.26,32.26-32.26      s32.27,14.44,32.27,32.26s-14.45,32.26-32.27,32.26c-2.76,0-5.44-0.35-7.99-1C432.8,230.22,425.54,224.51,421.28,216.9z" fill="#77D379"/><path d="M441.46,232.42v0.01L394.2,417.37H117.8L70.54,232.43v-0.01c8.66-2.2,15.92-7.91,20.18-15.52      c13.72,5.43,28.68,8.39,44.33,8.39c51.53,0,95.52-32.22,112.94-77.59v-0.02c2.6,0.48,5.27,0.73,8.01,0.73      c2.74,0,5.41-0.25,8.01-0.73v0.02c17.42,45.38,61.41,77.59,112.94,77.59c15.65,0,30.61-2.96,44.33-8.39      C425.54,224.51,432.8,230.22,441.46,232.42z" fill="#FFC035"/><g><path d="M426.85,205.663c-2.485,0-4.5-2.015-4.5-4.5c0-14.946,12.159-27.106,27.105-27.106       c2.485,0,4.5,2.015,4.5,4.5s-2.015,4.5-4.5,4.5c-9.983,0-18.105,8.122-18.105,18.106       C431.35,203.648,429.335,205.663,426.85,205.663z" fill="#FFFFFF"/></g><g><path d="M39.944,205.663c-2.485,0-4.5-2.015-4.5-4.5c0-14.946,12.16-27.106,27.105-27.106       c2.485,0,4.5,2.015,4.5,4.5s-2.015,4.5-4.5,4.5c-9.983,0-18.105,8.122-18.105,18.106       C44.444,203.648,42.43,205.663,39.944,205.663z" fill="#FFFFFF"/></g></g><g><polyline fill="none" points="392.36,417.37 394.2,417.37 441.46,232.43     "/><polyline fill="none" points="70.54,232.43 117.8,417.37 119.64,417.37     "/><path d="M90.71,216.9h0.01c13.72,5.43,28.68,8.39,44.33,8.39c51.53,0,95.52-32.22,112.94-77.59" fill="none"/><path d="M264.01,147.7c17.42,45.38,61.41,77.59,112.94,77.59c15.65,0,30.61-2.96,44.33-8.39h0.01" fill="none"/><path d="M247.99,147.68c-20.52-3.76-36.06-21.74-36.06-43.33c0-24.34,19.73-44.07,44.07-44.07      s44.07,19.73,44.07,44.07c0,21.59-15.54,39.57-36.06,43.33c-2.6,0.48-5.27,0.73-8.01,0.73S250.59,148.16,247.99,147.68z" fill="none"/><path d="M70.54,232.42c-2.55,0.65-5.23,1-7.99,1c-17.82,0-32.26-14.44-32.26-32.26s14.44-32.26,32.26-32.26      s32.26,14.44,32.26,32.26c0,5.72-1.49,11.09-4.09,15.74C86.46,224.51,79.2,230.22,70.54,232.42z" fill="none"/><path d="M421.28,216.9c-2.6-4.65-4.09-10.02-4.09-15.74c0-17.82,14.44-32.26,32.26-32.26s32.27,14.44,32.27,32.26      s-14.45,32.26-32.27,32.26c-2.76,0-5.44-0.35-7.99-1C432.8,230.22,425.54,224.51,421.28,216.9z" fill="none"/><path d="M392.36,417.37c8.24,0,14.91,6.67,14.91,14.9v4.54c0,8.23-6.67,14.91-14.91,14.91H119.64      c-8.24,0-14.91-6.68-14.91-14.91v-4.54c0-8.23,6.67-14.9,14.91-14.9H392.36z" fill="none"/></g></g></g><linearGradient gradientUnits="userSpaceOnUse" id="SVGID_1_" x1="256" x2="441.46" y1="282.525" y2="282.525"><stop offset="0" style="stop-color:#000000"/><stop offset="1" style="stop-color:#FFFFFF;stop-opacity:0"/></linearGradient><path d="M441.46,232.42v0.01L394.2,417.37H256V148.41c2.74,0,5.41-0.25,8.01-0.73v0.02   c17.42,45.38,61.41,77.59,112.94,77.59c15.65,0,30.61-2.96,44.33-8.39C425.54,224.51,432.8,230.22,441.46,232.42z" fill="url(#SVGID_1_)" opacity="0.1"/></g></svg>