<?xml version="1.0" ?><svg style="enable-background:new 0 0 48 48;" version="1.1" viewBox="0 0 48 48" xml:space="preserve" xmlns="http://www.w3.org/2000/svg" xmlns:xlink="http://www.w3.org/1999/xlink"><g id="Icons"><g><path d="M15.65044,27.70062c0,0,1.15821-1.035,0.67752-3.57471s-2.31221-8.86247,0.41915-13.11008    s5.91435-3.75344,8.82364-3.75344s6.76584,3.32083,6.98839,7.70647c0.22255,4.38564-0.04758,6.14265-0.58044,7.69153    c-0.53286,1.54888-1.06878,3.54834-0.37188,5.04023C32.30373,29.19251,15.65044,27.70062,15.65044,27.70062z" style="fill:#464747;"/><path d="M27.77181,25.80694l0.16729,0.73518l5.72744,1.68242    c3.10513,0.91197,5.55338,3.0949,6.60683,5.89059l1.53545,4.0751c0,0-16.02392,8.57124-35.61763-0.03261l1.53545-4.0751    c1.05345-2.79558,3.5017-4.97849,6.60682-5.89059l5.72744-1.6823l0.29129-0.67019" style="fill:#6352C1;"/><path d="M20.36259,25.51649c0.01253,0.00967-0.30169,0.99313-0.30169,0.99313    s1.34229,4.37908,3.65989,4.81473c2.3176,0.43565,4.21831-4.78223,4.21831-4.78223l-0.35489-1.15411L20.36259,25.51649z" style="fill:#DDBEA8;"/><path d="M8.93349,31.88847c0,0,13.26523,11.99617,29.75775,0c0,0,1.35696,1.62906,2.23727,3.96541    c0.88031,2.33635,0.88031,2.33635,0.88031,2.33635s-12.5981,5.76588-23.88462,3.35005S6.27774,37.92791,6.27774,37.92791    L8.93349,31.88847z" style="fill:#F43735;"/><path d="M18.23645,14.96886c-1.25564,2.93818-0.3014,6.50406,0.61519,8.39993    c0.28876,0.60268,0.62782,1.16769,1.0422,1.64487h0.01251c0.50221,0.64034,1.15518,1.14255,1.94616,1.43143    c0.57765,0.21345,1.24301,0.35157,1.98382,0.30128c0,0,0.01263,0.01251,0.01263,0h0.13181    c0.7408,0.05029,1.40628-0.08784,1.98382-0.30128c0.79109-0.28888,1.44394-0.79109,1.94615-1.43143h0.01263    c0.41426-0.47718,0.75332-1.0422,1.04208-1.64487c0.91659-1.89586,1.87083-5.46175,0.6153-8.39993" style="fill:#F9D9C0;"/><path d="M15.57763,14.1447c-0.29795-0.12515-1.13417-5.2878-1.02509-7.94183    c0,0,1.08422,4.90606,1.77542,5.57682l7.61515,2.43218l7.61515-2.58282c0.6912-0.67076,1.85384-5.61907,1.85384-5.61907    c0.10907,2.65414-0.72714,7.81677-1.02509,7.94183l-5.56233,1.90861l-2.82462,0.87055l-5.76361-1.7621l-2.66193-0.81612" style="fill:#FFC601;"/><path d="    M27.77181,25.80694l0.16729,0.73518l5.72744,1.68242c3.10513,0.91197,5.55338,3.0949,6.60683,5.89059l1.53545,4.0751    c0,0-16.02392,8.57124-35.61763-0.03261l1.53545-4.0751c1.05345-2.79558,3.5017-4.97849,6.60682-5.89059l5.72744-1.6823    l0.29129-0.67019" style="fill:none;stroke:#30302F;stroke-width:0.8;stroke-linecap:round;stroke-linejoin:round;stroke-miterlimit:10;"/><path d="    M16.32796,11.77969c0.66537-1.40628,1.72008-2.52383,3.06356-3.41524c1.46909-0.91659,3.05116-1.2305,4.74621-1.21787    c1.35599,0.03766,2.67444,0.23848,3.8798,0.8663c1.56944,0.81612,2.74976,2.00896,3.54074,3.61617" style="fill:none;stroke:#30302F;stroke-width:0.8;stroke-linecap:round;stroke-linejoin:round;stroke-miterlimit:10;"/><path d="    M32.38701,13.95181c0.13812,0.66548,0.22596,1.34359,0.27625,2.02159c0.1255,2.17212-0.11309,4.28154-0.66548,6.36582    c0,0-1.56956,3.8924-0.12561,5.3614" style="fill:none;stroke:#30302F;stroke-width:0.8;stroke-linecap:round;stroke-linejoin:round;stroke-miterlimit:10;"/><path d="    M15.57453,14.1402c0,0,0,0,0,0.01254c-0.23859,1.19284-0.31391,2.39819-0.25111,3.61617    c0.06281,1.54429,0.66548,4.58294,0.678,4.60797c0,0,1.18032,4.26903-0.52734,5.47438l-0.01253,0.01263" style="fill:none;stroke:#30302F;stroke-width:0.8;stroke-linecap:round;stroke-linejoin:round;stroke-miterlimit:10;"/><path d="    M16.32796,11.77969l7.61515,2.43218l7.61515-2.58282c0.6912-0.67076,1.85384-5.61907,1.85384-5.61907    c0.10907,2.65414-0.72714,7.81677-1.02509,7.94183l-5.56233,1.90861l-2.82462,0.87055l-5.76361-1.7621l-2.66193-0.81612" style="fill:none;stroke:#30302F;stroke-width:0.8;stroke-linecap:round;stroke-linejoin:round;stroke-miterlimit:10;"/><path d="    M15.57763,14.1447c-0.29795-0.12515-1.13417-5.2878-1.02509-7.94183c0,0,1.08422,4.90606,1.77542,5.57682" style="fill:none;stroke:#30302F;stroke-width:0.8;stroke-linecap:round;stroke-linejoin:round;stroke-miterlimit:10;"/><path d="    M18.23645,14.96886c-1.25564,2.93818-0.3014,6.50406,0.61519,8.39993c0.28876,0.60268,0.62782,1.16769,1.0422,1.64487    c0,0,0.66314,0.90809,1.95867,1.43143c0.57765,0.21345,1.24301,0.35157,1.98382,0.30128c0,0,0.01263,0.01251,0.01263,0h0.13181    c0.7408,0.05029,1.40628-0.08784,1.98382-0.30128c0.79109-0.28888,1.44394-0.79109,1.94615-1.43143h0.01263    c0.41426-0.47718,0.75332-1.0422,1.04208-1.64487c0.91659-1.89586,1.87083-5.46175,0.6153-8.39993" style="fill:none;stroke:#30302F;stroke-width:0.8;stroke-linecap:round;stroke-linejoin:round;stroke-miterlimit:10;"/><path d="    M39.0415,31.88847c0,0-14.00716,11.85031-30.10801,0" style="fill:none;stroke:#30302F;stroke-width:0.8;stroke-linecap:round;stroke-linejoin:round;stroke-miterlimit:10;"/><path d="    M27.9391,26.54211c0,0-3.44085,10.87551-7.8782-0.03249" style="fill:none;stroke:#30302F;stroke-width:0.8;stroke-linecap:round;stroke-linejoin:round;stroke-miterlimit:10;"/><path d="M25.77238,23.06544c-0.35525,0.72025-0.96619,1.05115-1.78208,1.04197    c-0.7989-0.00909-1.3886-0.34985-1.73259-1.03901c0.37155-0.19781,0.69809-0.44639,1.06539-0.54834    c0.46491-0.12917,0.97193-0.16396,1.43971,0.01895C25.10093,22.67113,25.41139,22.87393,25.77238,23.06544z" style="fill:#30302F;"/><path d="    M23.22081,20.95039c0.13352,0.02584,0.26752,0.0496,0.40186,0.07142c0.1543,0.02503,0.31057,0.04763,0.46741,0.03984    c0.24158-0.01194,0.482-0.07647,0.71922-0.12081" style="fill:none;stroke:#30302F;stroke-width:0.8;stroke-linecap:round;stroke-linejoin:round;stroke-miterlimit:10;"/><path d="    M25.81739,17.92151c0,0,1.69505-0.45938,2.18442,0" style="fill:none;stroke:#30302F;stroke-width:0.8;stroke-linecap:round;stroke-linejoin:round;stroke-miterlimit:10;"/><path d="    M22.21258,17.92151c0,0-1.69493-0.45938-2.18429,0" style="fill:none;stroke:#30302F;stroke-width:0.8;stroke-linecap:round;stroke-linejoin:round;stroke-miterlimit:10;"/></g></g></svg>